 <svg  version="1.0" xmlns="http://www.w3.org/2000/svg"  width="350.000000pt" height="450.000000pt" viewBox="0 0 350.000000 450.000000"  preserveAspectRatio="xMidYMid meet">  <g transform="translate(0.000000,450.000000) scale(0.050000,-0.050000)" fill="#9c4949" stroke="none"> <path d="M3261 7984 c-82 -3 -159 -14 -171 -24 -12 -10 -91 -26 -175 -37 -183 -23 -291 -71 -345 -155 -22 -34 -104 -105 -182 -157 -78 -52 -217 -177 -310 -277 -92 -100 -199 -212 -238 -249 -38 -37 -67 -81 -64 -97 11 -55 -38 -167 -92 -210 -49 -39 -50 -42 -9 -29 27 8 45 5 45 -8 0 -11 -17 -21 -37 -21 -27 0 -37 -16 -39 -61 -1 -41 -22 -80 -64 -119 -60 -56 -72 -116 -23 -105 30 7 30 -29 0 -39 -26 -9 -31 -36 -49 -265 -18 -225 65 -572 155 -654 38 -34 51 -68 19 -48 -34 21 -62 -42 -49 -109 9 -43 33 -76 70 -98 63 -35 67 -75 11 -110 -30 -18 -45 -11 -90 43 -72 87 -124 87 -123 0 1 -71 33 -242 37 -198 1 16 15 22 32 16 33 -13 110 42 110 78 0 13 22 33 49 45 48 22 51 19 84 -89 72 -227 342 -299 917 -244 97 10 119 9 70 -4 -151 -39 -423 -80 -582 -88 -93 -5 -175 -10 -183 -10 -21 -1 -19 -56 3 -70 51 -31 742 77 905 143 97 38 258 271 356 515 l74 181 77 6 c107 9 160 -25 191 -123 34 -109 204 -439 281 -546 33 -47 278 -138 448 -166 66 -10 179 -29 251 -42 72 -12 139 -20 150 -17 10 2 44 -6 75 -19 31 -13 69 -23 84 -23 15 0 33 -9 40 -20 7 -12 21 -15 31 -9 11 6 20 0 20 -15 1 -14 12 -5 24 20 27 56 7 78 -85 93 -618 99 -857 151 -927 203 -42 32 -42 32 16 19 347 -80 892 -39 1017 77 47 44 95 174 125 337 25 139 44 96 56 -130 37 -666 37 -684 3 -915 -19 -126 -38 -261 -43 -300 -5 -38 -18 -79 -28 -89 -10 -10 -19 -42 -20 -70 -1 -78 -68 -257 -116 -308 -24 -25 -43 -60 -43 -78 0 -17 -25 -53 -55 -79 -57 -50 -105 -121 -105 -155 0 -51 -125 -201 -168 -201 -46 0 -111 -111 -113 -192 -1 -58 -48 -108 -102 -108 -52 0 -150 -143 -126 -182 10 -16 -34 -27 -77 -20 -10 2 -11 -6 -4 -18 7 -11 4 -20 -6 -20 -11 0 -25 -20 -32 -45 -12 -42 -14 -43 -39 -10 -25 32 -30 30 -72 -24 -41 -53 -179 -127 -151 -80 20 31 -23 22 -50 -11 -14 -17 -50 -30 -81 -30 -31 0 -61 -8 -67 -17 -13 -21 -112 -6 -147 22 -18 14 -25 11 -25 -10 0 -20 -17 -28 -54 -24 -29 4 -86 -7 -124 -23 -65 -27 -74 -27 -96 4 -13 18 -38 28 -54 22 -20 -8 -26 -3 -19 15 6 18 -7 30 -36 35 -26 4 -45 18 -42 31 3 15 -16 25 -45 25 -27 0 -50 10 -50 22 0 12 -12 18 -28 12 -15 -6 -37 -1 -50 12 -12 12 -22 14 -22 4 0 -11 -14 1 -31 26 -18 25 -39 40 -47 35 -25 -15 -102 66 -90 96 7 18 -8 26 -48 26 -62 0 -166 64 -157 97 12 39 109 26 120 -16 9 -34 16 -36 42 -15 26 22 31 20 31 -8 0 -18 8 -29 17 -23 10 6 34 -7 53 -28 28 -30 42 -35 63 -17 20 16 27 15 27 -4 0 -14 6 -20 13 -12 8 7 34 0 59 -17 25 -16 60 -24 77 -18 20 8 31 1 31 -19 0 -19 11 -27 29 -21 16 7 40 -6 54 -29 27 -44 77 -25 77 29 0 16 10 28 21 28 12 0 16 -9 9 -20 -7 -11 -4 -20 6 -20 10 0 28 29 41 65 18 54 21 56 16 13 -8 -66 51 -111 88 -67 27 32 88 40 69 9 -7 -11 -2 -20 10 -20 13 0 19 11 14 25 -13 38 25 98 52 82 13 -8 7 5 -14 29 -20 24 -46 37 -58 31 -48 -30 -194 -28 -194 3 0 46 -32 29 -135 -70 -28 -26 -30 -24 -21 25 9 50 5 55 -47 55 -31 0 -57 8 -57 19 0 10 -19 24 -41 31 -28 9 -38 25 -30 47 6 18 -11 8 -38 -22 -58 -65 -84 -69 -101 -15 -10 32 -20 36 -51 19 -45 -23 -48 -14 -17 45 20 37 18 40 -15 27 -59 -24 -97 -23 -92 3 3 15 -16 12 -54 -10 -32 -18 -54 -40 -48 -48 5 -9 -3 -16 -17 -16 -15 0 -44 32 -65 70 -20 39 -45 70 -54 70 -9 0 -35 18 -57 40 -25 25 -40 30 -41 15 -1 -14 -10 -3 -21 23 -14 36 -12 53 6 65 21 13 20 16 -1 17 -34 0 -217 189 -233 240 -6 20 -25 41 -41 48 -16 6 -29 28 -29 49 0 21 -14 44 -30 50 -17 7 -30 28 -31 47 0 20 -13 53 -30 75 -16 21 -29 55 -29 75 0 20 -7 36 -15 36 -40 0 -57 135 -23 177 21 26 30 60 23 87 -8 30 -15 35 -20 15 -24 -88 -27 -91 -56 -50 -16 21 -29 72 -29 114 0 41 -9 80 -21 87 -11 7 -18 24 -16 37 11 63 -31 518 -44 473 -14 -52 -6 -395 12 -475 18 -83 -10 -148 -58 -133 -38 12 -40 10 -15 -20 15 -18 42 -28 60 -23 32 11 45 -21 120 -301 9 -34 54 -139 99 -232 46 -94 83 -180 83 -191 0 -11 17 -42 38 -68 21 -27 45 -82 53 -123 7 -41 21 -74 29 -74 21 0 60 -113 45 -128 -6 -7 3 -12 21 -12 18 0 43 -20 56 -44 83 -156 771 -701 1168 -926 150 -85 233 -153 222 -182 -12 -32 45 -14 86 28 15 15 76 63 135 106 214 158 767 746 767 815 0 9 19 34 42 55 48 44 95 121 60 99 -12 -7 -22 -4 -22 7 0 11 9 25 20 32 11 7 40 50 63 96 23 46 55 98 71 114 26 27 69 90 124 180 10 17 28 53 40 80 12 28 40 77 61 110 21 33 39 75 40 94 0 19 18 64 38 100 20 36 36 80 36 98 0 120 55 280 95 277 114 -9 166 32 57 45 -55 6 -55 6 -51 156 2 83 4 185 4 227 1 58 10 79 39 86 50 14 46 304 -5 403 -42 82 -41 98 18 168 51 60 66 116 31 116 -10 0 -24 -9 -31 -20 -22 -36 -45 -21 -56 35 -14 71 47 156 124 172 52 10 58 19 57 87 -1 42 13 190 31 330 31 232 31 291 2 433 -7 32 -2 42 14 32 33 -20 8 115 -42 231 -21 50 -57 154 -79 232 -23 78 -64 176 -91 216 -28 41 -50 81 -50 90 0 9 -104 122 -230 251 -127 129 -236 256 -242 283 -7 27 -30 58 -51 70 -21 11 -33 29 -26 39 16 26 -135 174 -206 202 -300 120 -383 143 -415 117 -14 -11 -44 -7 -79 11 -195 101 -509 163 -770 153z m474 -188 c51 -49 85 -35 43 17 -15 19 14 6 66 -29 51 -35 99 -64 105 -64 7 0 36 -16 65 -35 29 -19 63 -35 75 -35 53 -3 250 -118 331 -195 72 -67 91 -77 96 -50 8 42 43 45 94 7 21 -15 50 -23 64 -18 15 6 26 -4 26 -22 0 -35 -50 -44 -70 -12 -7 11 -32 20 -56 19 -42 0 -41 -3 12 -50 31 -27 65 -45 75 -39 10 7 38 -20 63 -59 28 -42 68 -75 102 -82 32 -7 64 -32 73 -56 9 -24 64 -90 121 -146 68 -66 97 -107 82 -116 -14 -8 -56 21 -104 72 -44 48 -90 84 -104 80 -13 -3 -17 1 -9 9 19 18 -102 148 -138 148 -14 0 -32 11 -41 25 -30 47 -79 74 -158 86 -43 7 -109 31 -147 55 -37 23 -61 31 -53 18 27 -44 -60 -26 -105 22 -24 26 -131 89 -238 142 -321 156 -367 181 -361 195 3 7 -19 33 -49 57 -60 47 -74 92 -22 72 29 -12 29 -8 -1 38 l-34 51 76 -31 c41 -18 96 -51 121 -74z m-363 61 c10 -16 4 -20 -19 -11 -18 7 -33 6 -33 -2 0 -14 32 -30 185 -93 41 -18 75 -41 75 -53 0 -13 -14 -16 -35 -8 -120 50 -336 74 -431 48 -60 -16 -83 -15 -95 3 -21 34 -192 6 -207 -33 -8 -22 -2 -28 23 -20 101 30 145 35 145 16 0 -11 -34 -29 -75 -39 -65 -16 -55 -19 85 -19 204 1 450 -26 450 -49 0 -9 -22 -17 -50 -17 -27 0 -50 -7 -50 -15 0 -8 78 -12 174 -8 131 5 179 -1 195 -21 12 -16 75 -40 141 -54 116 -24 370 -131 370 -155 0 -21 -144 15 -217 54 -40 22 -91 39 -113 38 -31 -1 -27 -7 20 -28 78 -36 48 -37 -100 -3 -126 30 -397 40 -382 14 8 -12 -238 -68 -428 -96 -38 -6 -85 -18 -104 -28 -46 -24 -57 -23 -45 7 7 19 -23 26 -121 25 -83 0 -130 -8 -130 -23 0 -26 -87 -87 -124 -87 -14 0 -49 -12 -78 -27 -28 -15 -84 -33 -122 -41 -39 -7 -95 -35 -125 -62 -63 -59 -101 -66 -74 -15 42 77 112 117 218 124 14 0 25 22 25 48 0 43 69 100 127 104 13 1 56 17 97 35 41 18 87 29 102 23 16 -6 34 2 40 18 9 23 0 28 -42 19 -88 -17 -94 -17 -94 4 0 11 12 19 26 17 15 -2 22 9 16 25 -6 15 -1 25 11 23 12 -3 26 6 31 20 5 14 -5 25 -22 25 -47 0 -39 40 8 43 22 1 49 4 60 7 11 3 38 6 60 8 22 1 40 12 40 24 0 14 -19 18 -48 10 -27 -6 -70 -4 -95 7 -42 17 -39 19 27 20 40 0 79 10 86 22 9 13 -5 16 -38 8 -149 -38 96 124 264 173 71 21 382 17 396 -5z m879 -96 c-6 -10 7 -24 29 -31 22 -7 40 -26 40 -42 0 -25 -8 -25 -60 2 -64 33 -76 60 -35 77 37 15 38 15 26 -6z m-887 -512 c24 -14 -5 -19 -99 -20 -85 -1 -135 -10 -140 -25 -5 -13 -17 -19 -28 -12 -10 6 -48 -2 -83 -18 -70 -32 -298 -57 -282 -31 26 41 -74 11 -142 -43 -85 -67 -142 -80 -121 -26 11 28 6 28 -30 -5 -24 -22 -47 -36 -52 -32 -14 11 -129 -40 -224 -100 -49 -30 -101 -49 -118 -42 -24 9 -29 3 -19 -23 14 -34 -72 -172 -107 -172 -23 0 2 85 37 125 19 22 22 35 7 35 -44 0 -23 37 36 63 32 14 54 33 48 41 -5 9 7 22 27 29 88 29 226 95 226 108 0 7 32 10 70 6 39 -4 70 -1 70 8 0 69 332 159 378 103 32 -39 33 -39 176 7 146 48 308 58 370 24z m396 -29 c0 -11 -28 -20 -61 -20 -36 0 -56 8 -49 20 7 11 34 20 61 20 27 0 49 -9 49 -20z m280 -22 c0 -12 12 -18 28 -12 15 6 48 0 75 -13 43 -22 131 -51 252 -84 56 -15 405 -245 405 -266 0 -9 59 -78 130 -152 72 -75 130 -154 130 -175 0 -21 9 -56 21 -78 25 -47 3 -183 -28 -172 -13 4 -26 25 -30 46 -4 21 -16 47 -28 58 -14 14 -16 4 -6 -30 7 -27 17 -78 20 -112 4 -35 21 -90 39 -123 17 -34 41 -104 53 -158 12 -53 33 -110 48 -127 30 -35 60 -120 41 -120 -80 0 -184 50 -206 98 -13 31 -45 65 -69 77 -97 48 -186 81 -215 81 -16 0 -67 8 -113 19 -49 12 -94 13 -110 2 -15 -10 -54 -16 -87 -15 -33 2 -73 -2 -90 -9 -16 -6 -43 -11 -60 -9 -108 9 -182 -8 -226 -52 l-48 -48 -20 53 c-19 49 -21 50 -35 13 -39 -109 -53 -131 -72 -119 -12 7 -19 37 -15 66 4 38 -4 54 -32 60 -26 5 -34 -2 -27 -20 44 -109 45 -106 -21 -56 -71 51 -109 40 -57 -17 18 -21 33 -57 33 -81 0 -51 -1 -51 181 -13 216 46 644 89 679 69 24 -14 22 -18 -10 -18 -100 -2 -558 -63 -724 -98 -130 -26 -187 -31 -192 -15 -5 16 -33 15 -101 -3 -113 -30 -153 -32 -153 -5 0 11 14 20 30 20 27 0 27 7 -3 51 -24 37 -48 50 -85 46 -29 -3 -63 1 -77 10 -16 10 -25 4 -25 -16 0 -41 -19 -39 -54 4 -26 32 -26 31 -7 -8 15 -32 14 -47 -4 -56 -14 -6 -6 -8 17 -4 23 4 63 -8 89 -28 l47 -35 -59 10 c-33 5 -113 22 -179 37 -192 45 -264 54 -550 68 l-270 14 230 3 c202 2 308 -7 577 -50 l67 -11 -33 63 c-18 34 -39 63 -47 64 -81 13 -125 13 -133 -1 -6 -9 -52 -8 -104 1 -129 25 -408 31 -462 12 -34 -13 -45 -9 -45 15 0 40 -58 41 -73 1 -6 -16 -20 -30 -30 -30 -11 0 -14 9 -7 20 20 32 -43 23 -70 -10 -28 -33 -70 -42 -50 -10 22 35 -14 22 -83 -31 -78 -60 -85 -88 -22 -91 28 -1 17 -9 -31 -20 -41 -10 -101 -37 -132 -60 -52 -38 -64 -40 -130 -16 -76 27 -97 57 -37 53 154 -11 169 24 144 343 -27 360 62 522 395 717 80 48 146 94 146 103 0 9 56 38 125 63 69 24 180 70 247 100 123 55 247 86 448 110 l110 13 -42 -40 c-22 -21 -76 -44 -120 -50 -128 -17 -416 -94 -438 -117 -57 -61 552 93 640 162 59 46 239 82 435 86 184 4 214 10 222 40 10 38 73 49 73 13z m589 -101 c28 -13 51 -35 51 -50 0 -41 -28 -32 -76 23 -49 57 -47 59 25 27z m513 -133 c36 -96 100 -221 153 -298 53 -78 90 -264 47 -237 -12 7 -22 26 -22 42 0 15 -44 116 -99 224 -54 107 -117 234 -141 281 l-42 87 42 -23 c23 -12 51 -47 62 -76z m-3242 41 c0 -8 -23 -42 -52 -75 -28 -33 -46 -50 -40 -38 6 12 20 46 31 75 18 48 61 75 61 38z m3295 -410 c13 -11 19 -28 13 -39 -7 -10 -27 -5 -47 13 -19 17 -45 31 -58 31 -12 0 -23 10 -23 21 0 24 74 7 115 -26z m143 -300 c14 -41 32 -79 42 -85 9 -6 13 -35 8 -65 -5 -30 -14 -116 -21 -190 -9 -100 -20 -135 -42 -135 -23 0 -27 16 -16 70 10 57 7 67 -18 58 -18 -7 -36 1 -43 20 -7 18 -27 30 -44 27 -25 -4 -30 15 -26 109 4 92 -3 121 -37 155 -51 51 -51 61 -3 61 43 0 104 -83 121 -168 11 -54 14 -56 45 -25 37 37 22 113 -41 210 -16 25 -33 75 -37 110 l-7 63 48 -70 c26 -38 58 -104 71 -145z m83 -440 c-7 -63 -25 -126 -40 -140 -22 -21 -24 -18 -11 15 9 22 19 75 22 118 6 80 24 144 36 130 3 -4 0 -60 -7 -123z m-119 -122 c-18 -22 -11 -35 29 -62 53 -35 61 -139 23 -281 -6 -22 -12 -51 -12 -65 -1 -14 -12 -25 -24 -25 -14 0 -17 27 -8 78 8 51 5 83 -11 92 -16 11 -19 2 -9 -30 10 -31 7 -41 -8 -31 -35 21 -26 68 18 96 27 16 39 45 38 85 -2 33 -7 45 -12 25 -11 -43 -33 -45 -66 -5 -14 17 -40 30 -57 31 -23 0 -14 18 32 60 68 61 107 80 67 32z m-412 -68 c211 -43 250 -81 250 -240 0 -292 -83 -528 -196 -561 -423 -124 -994 -52 -1088 137 -125 250 -166 519 -86 571 115 75 548 151 602 106 18 -15 28 -16 28 -2 0 49 217 44 490 -11z m-2112 15 c411 -47 486 -105 441 -347 -57 -305 -172 -450 -399 -502 -136 -32 -585 -56 -570 -31 3 6 -22 11 -57 12 -256 6 -334 117 -365 518 -11 145 -8 165 31 215 92 115 532 180 919 135z m1434 -3555 c-30 -59 -120 -145 -151 -145 -10 0 -44 -22 -75 -48 -32 -27 -75 -51 -97 -55 -21 -4 -45 -15 -52 -26 -8 -10 -26 -20 -40 -22 -15 -3 -45 -7 -67 -11 -62 -9 -190 21 -190 45 0 15 -10 14 -29 -2 -23 -19 -44 -17 -100 10 -77 36 -88 58 -41 76 47 18 100 -8 67 -32 -20 -14 -17 -16 10 -7 20 7 50 12 66 12 16 0 24 9 17 20 -7 12 -21 16 -30 10 -9 -6 -23 -2 -30 10 -7 11 -5 21 4 21 9 1 43 5 76 10 41 5 51 2 30 -11 -16 -10 -22 -25 -14 -33 9 -9 31 -6 50 6 19 12 65 17 102 11 57 -8 66 -4 56 24 -11 26 -4 30 37 20 40 -10 49 -5 49 28 0 22 14 45 31 52 20 7 26 3 17 -11 -26 -43 153 -3 229 51 93 66 111 66 75 -3z"/> <path d="M3750 7699 c-13 -20 24 -47 134 -97 154 -69 170 -45 30 44 -30 20 -51 42 -47 50 5 8 -17 15 -50 16 -32 1 -62 -4 -67 -13z"/> <path d="M4100 7525 c0 -18 183 -145 209 -145 28 0 -73 101 -133 132 -61 32 -76 34 -76 13z"/> <path d="M2700 7560 c0 -11 40 -19 89 -17 49 2 85 11 79 20 -15 24 -168 21 -168 -3z"/> <path d="M3190 7556 c-136 -29 -370 -102 -360 -112 5 -6 -6 -22 -25 -36 -63 -48 159 -11 315 52 28 11 118 28 200 38 111 12 127 17 64 19 -48 2 -81 11 -75 21 18 29 -33 36 -119 18z"/> <path d="M2560 6505 c-73 -27 -129 -85 -83 -85 24 0 43 -11 44 -25 0 -14 14 0 30 30 17 30 43 55 60 55 16 0 29 9 29 20 0 22 -32 24 -80 5z"/> <path d="M3966 6251 c12 -34 68 -35 81 -2 9 23 -1 29 -38 26 -27 -2 -46 -13 -43 -24z"/> <path d="M2227 6190 c7 -17 3 -31 -8 -32 -10 -2 -28 -4 -39 -5 -11 -2 -20 -12 -21 -23 -2 -31 53 -35 84 -6 15 14 45 29 67 33 80 14 70 31 -27 50 -55 10 -65 7 -56 -17z"/> <path d="M4582 5595 c-1 -19 -18 -35 -36 -35 -28 0 -26 -6 11 -32 58 -41 73 -26 47 46 -13 34 -21 43 -22 21z"/> <path d="M3952 5531 c-7 -26 -28 -52 -47 -57 -19 -5 8 -10 61 -12 57 -1 115 11 144 30 27 17 114 44 194 59 l146 27 -150 -2 c-82 -1 -160 -10 -173 -20 -48 -37 -151 -57 -140 -26 6 16 4 33 -6 39 -9 6 -22 -11 -29 -38z"/> <path d="M4670 5534 c-10 -23 -2 -50 21 -75 34 -37 34 -39 0 -39 -29 0 -34 -11 -25 -57 15 -75 -5 -148 -37 -135 -14 5 -31 -3 -37 -19 -6 -16 -25 -29 -41 -29 -17 0 -31 -8 -31 -18 0 -10 -20 -18 -45 -17 -105 1 -335 -11 -335 -17 0 -22 166 -71 260 -77 103 -6 260 24 260 51 0 6 47 28 105 47 85 29 106 45 108 84 4 67 22 107 49 107 12 0 17 -13 11 -30 -15 -39 -8 -38 44 8 40 34 51 106 18 117 -36 12 -53 3 -42 -25 17 -45 -28 -36 -53 10 -12 22 -38 40 -59 40 -21 0 -52 14 -68 30 -17 17 -39 30 -50 30 -11 0 -24 11 -29 25 -6 17 -14 13 -24 -11z"/> <path d="M4210 5473 c-33 -13 -71 -30 -85 -39 -14 -9 -94 -20 -178 -24 -156 -7 -206 -33 -163 -85 16 -19 27 -20 36 -5 13 21 80 7 80 -17 -1 -38 -40 -67 -72 -55 -33 13 -33 11 -3 -22 28 -31 59 -35 228 -28 l197 8 -117 22 -117 22 82 60 c44 33 81 71 82 85 0 14 9 25 21 25 11 0 19 -11 18 -25 -15 -114 48 -195 153 -195 87 0 168 74 168 153 0 43 5 50 24 31 36 -36 76 -29 76 14 0 44 -50 91 -78 73 -10 -6 -25 -3 -32 9 -16 26 -244 21 -320 -7z m282 -65 c-7 -17 -12 -40 -12 -50 0 -10 -9 -18 -20 -18 -22 0 -27 66 -7 87 26 25 51 13 39 -19z"/> <path d="M3992 5058 c21 -23 64 -61 96 -83 l57 -41 -34 52 c-19 29 -62 67 -96 84 l-61 30 38 -42z"/> <path d="M2745 5555 c3 -14 -10 -22 -30 -19 -62 10 -37 -37 35 -67 83 -35 87 -44 20 -44 -27 0 -44 8 -38 18 13 21 -128 20 -262 -2 -122 -20 -136 -12 -47 26 62 27 63 30 17 31 -27 0 -72 -12 -100 -28 -78 -44 -106 -38 -92 20 7 29 4 50 -8 50 -11 0 -20 -23 -20 -51 0 -32 -23 -73 -61 -107 -34 -31 -64 -69 -67 -84 -19 -95 -41 -138 -74 -149 -21 -6 -38 -25 -38 -42 0 -26 3 -26 30 0 16 16 57 36 90 43 33 7 60 21 60 32 0 34 94 18 130 -22 21 -23 26 -40 13 -40 -13 0 -23 -13 -23 -28 0 -49 139 -67 330 -43 33 5 128 39 210 77 110 51 159 65 185 51 79 -42 69 100 -12 188 -27 29 -44 57 -38 63 22 23 -17 108 -55 118 -22 6 -36 3 -30 -6 6 -9 -8 -12 -30 -6 -22 6 -40 19 -40 28 0 10 -13 18 -30 18 -16 0 -28 -11 -25 -25z m137 -226 c45 -29 94 -47 110 -41 16 6 28 -2 28 -19 0 -20 -23 -29 -75 -30 -88 -1 -228 -55 -150 -57 85 -3 45 -38 -60 -53 -174 -25 -292 -24 -282 3 5 13 -25 40 -67 61 -96 47 -107 95 -30 135 63 32 84 25 84 -28 0 -74 103 -138 204 -126 93 11 93 11 117 108 27 115 18 112 121 47z"/> <path d="M3064 5485 c-20 -7 -20 -15 -2 -37 24 -29 98 -39 98 -13 0 24 -68 60 -96 50z"/> <path d="M2909 5071 c-43 -38 -73 -74 -67 -80 7 -6 46 21 87 60 98 92 83 108 -20 20z"/> <path d="M5507 5154 c-63 -72 -67 -105 -26 -187 45 -87 46 -94 19 -77 -35 21 -22 -14 15 -42 33 -24 32 -28 -10 -58 -55 -39 -43 -71 20 -55 70 17 90 41 80 96 -6 30 3 65 22 85 52 58 65 198 23 245 -48 51 -94 49 -143 -7z"/> <path d="M1731 5022 c-8 -23 -7 -84 1 -137 13 -86 16 -90 29 -41 27 98 -2 267 -30 178z"/> <path d="M1537 4841 c-5 -15 0 -83 11 -150 11 -66 19 -164 19 -216 -1 -52 5 -95 13 -95 8 0 26 -40 40 -90 25 -89 74 -131 53 -45 -6 25 -17 104 -24 175 -8 72 -23 147 -33 167 -11 20 -30 92 -44 160 -14 67 -30 110 -35 94z"/> <path d="M1729 4738 c-23 -36 -31 -174 -11 -187 9 -5 23 36 30 92 14 104 7 138 -19 95z"/> <path d="M4040 4532 c0 -124 -89 -197 -219 -180 -68 9 -101 6 -101 -9 0 -38 68 -60 229 -75 l157 -14 -10 154 c-11 164 -56 265 -56 124z"/> <path d="M3626 4541 c-34 -21 -66 -50 -71 -64 -8 -21 -18 -22 -50 -3 -28 16 -46 17 -61 2 -15 -15 -38 -9 -79 20 -114 82 -210 76 -351 -22 -31 -21 -59 -35 -63 -31 -3 4 -20 34 -38 67 l-33 60 11 -60 c39 -200 89 -255 218 -240 179 22 196 60 33 74 -110 9 -96 49 22 66 133 20 149 17 226 -42 80 -60 163 -61 225 -3 38 35 79 47 190 55 171 12 195 45 72 98 -141 60 -183 64 -251 23z"/> <path d="M5499 4427 c-24 -53 -57 -112 -73 -131 -55 -62 -68 -177 -26 -230 41 -53 51 -45 57 48 3 54 -3 63 -32 54 -27 -9 -25 -3 9 28 25 22 54 82 66 134 12 52 31 113 42 134 12 22 17 44 11 50 -6 5 -30 -34 -54 -87z"/> <path d="M3202 4169 c-48 -38 -98 -69 -110 -69 -12 0 -34 -18 -47 -40 -14 -22 -35 -40 -46 -40 -12 0 -16 8 -10 18 6 10 -11 8 -39 -5 -28 -13 -54 -37 -60 -53 -5 -17 -41 -48 -79 -68 -39 -21 -66 -44 -62 -51 11 -16 -22 -71 -43 -72 -72 -3 -126 -34 -128 -74 -10 -154 -6 -434 7 -447 29 -29 43 14 18 55 -14 22 -21 46 -14 52 6 7 11 1 11 -11 0 -12 17 -32 37 -42 34 -18 37 -13 30 49 -6 48 0 69 18 69 15 0 62 36 106 81 135 138 307 179 757 179 362 0 576 -22 589 -61 3 -10 14 -15 22 -9 28 16 141 -32 141 -61 0 -14 32 -38 70 -52 77 -27 93 -57 31 -57 -36 0 -35 -5 12 -51 28 -28 56 -46 62 -40 26 25 28 231 3 304 -14 42 -28 87 -30 99 -7 39 -72 128 -93 128 -11 0 -33 16 -47 35 -15 19 -27 24 -27 11 -1 -13 8 -29 19 -36 11 -7 20 -30 20 -51 0 -22 -9 -39 -20 -39 -11 0 -20 18 -20 40 0 22 -9 40 -20 40 -11 0 -20 -10 -20 -23 0 -12 -16 -34 -35 -49 -30 -22 -31 -32 -9 -69 32 -52 -29 -40 -120 24 -179 127 -333 179 -457 157 -86 -16 -141 -16 -201 1 -46 12 -105 17 -131 10 -35 -9 -47 -4 -47 22 0 18 6 28 13 21 16 -17 87 115 87 162 0 20 11 47 24 60 58 58 -79 18 -162 -47z m-109 -224 l50 -54 -50 -41 c-253 -203 -330 -220 -210 -47 28 41 31 56 12 65 -14 6 -5 7 20 0 30 -7 45 -2 45 16 0 28 55 116 72 116 5 0 33 -25 61 -55z m331 -140 c-39 -30 -97 -33 -115 -4 -8 14 -22 13 -42 -3 -43 -37 -83 9 -46 53 21 26 48 31 113 22 61 -9 86 -5 87 12 1 14 9 7 18 -15 12 -28 7 -48 -15 -65z m411 53 c14 -3 25 -12 25 -21 0 -9 -11 -18 -25 -18 -14 -1 -7 -10 15 -19 32 -14 26 -17 -33 -19 -40 0 -111 19 -156 43 -83 45 -140 27 -107 -33 7 -12 -1 -8 -16 8 -15 16 -41 41 -58 55 -27 24 223 26 355 4z"/> <path d="M3560 4227 c0 -12 66 -115 82 -127 7 -5 19 -30 26 -54 9 -28 25 -40 43 -33 16 6 43 1 58 -12 16 -14 38 -19 48 -13 11 7 45 -1 76 -16 31 -16 83 -39 114 -51 38 -14 53 -32 46 -51 -7 -17 -4 -30 6 -30 10 0 21 15 25 34 6 31 9 31 41 -2 36 -36 95 -8 95 46 0 31 -204 144 -244 135 -21 -5 -29 1 -23 17 6 17 -12 31 -50 39 -32 7 -81 39 -107 71 -51 61 -150 67 -128 7 6 -15 2 -27 -9 -27 -10 0 -19 12 -19 28 0 15 -18 32 -40 38 -22 6 -40 6 -40 1z"/> <path d="M3414 4205 c-29 -51 -33 -125 -7 -125 30 0 57 115 31 131 -8 5 -19 3 -24 -6z"/> <path d="M1573 4026 c-7 -45 -3 -80 10 -88 12 -7 15 -25 6 -39 -10 -16 -7 -20 8 -11 13 8 23 36 23 62 0 26 9 53 20 60 36 22 23 90 -17 90 -28 0 -41 -19 -50 -74z"/> <path d="M5033 3865 c-18 -31 -23 -241 -6 -258 27 -28 75 37 50 67 -19 23 -19 33 2 45 18 12 22 38 13 89 -13 67 -38 92 -59 57z"/> <path d="M1945 3664 c-14 -28 -18 -57 -9 -63 9 -6 18 -36 20 -67 2 -31 17 -70 34 -87 16 -16 30 -51 30 -77 0 -26 9 -53 20 -60 11 -7 20 6 20 28 0 22 11 46 23 54 16 10 9 20 -20 31 -42 15 -61 57 -25 57 10 0 8 22 -5 48 -12 27 -29 45 -36 40 -8 -5 -10 22 -4 59 14 85 -15 107 -48 37z"/> <path d="M3161 3581 c-14 -9 -22 -33 -18 -53 8 -41 377 -61 377 -21 0 10 -18 13 -40 7 -22 -6 -40 -2 -40 8 0 10 32 18 71 18 47 0 67 -8 58 -22 -9 -15 -1 -18 24 -10 31 10 39 2 39 -37 0 -57 -73 -93 -156 -77 -30 6 -63 -3 -83 -24 -44 -44 -192 -52 -238 -13 -43 36 -44 18 -3 -68 34 -71 131 -90 244 -47 42 16 45 14 32 -27 -12 -40 -10 -42 20 -17 29 24 37 23 62 -10 20 -26 34 -31 45 -16 8 13 35 29 60 37 44 13 55 -1 46 -64 -1 -14 7 -25 18 -25 27 0 27 32 0 81 -14 27 -14 39 0 39 12 0 21 14 21 31 0 24 8 26 39 10 47 -26 141 -27 180 -2 19 12 39 11 55 -3 41 -33 32 18 -9 59 -22 22 -62 34 -108 32 -41 -2 -96 13 -129 34 l-56 37 55 21 c31 12 75 21 99 21 49 0 171 89 151 110 -7 7 -83 0 -168 -16 -86 -16 -183 -25 -217 -21 -34 5 -120 11 -192 15 -71 3 -149 11 -172 17 -23 6 -53 4 -67 -4z"/> <path d="M1660 3020 c45 -30 -12 -61 -95 -52 -63 6 -80 -21 -68 -111 1 -7 -20 -11 -47 -8 -27 3 -44 -2 -38 -12 6 -9 -3 -36 -19 -59 -27 -39 -30 -39 -49 -6 -19 34 -21 34 -55 0 -24 -24 -53 -32 -90 -25 -38 8 -67 -2 -99 -31 l-45 -42 14 43 c11 33 7 40 -18 31 -17 -7 -26 -19 -21 -28 15 -24 -47 -41 -107 -30 -42 8 -45 7 -13 -7 67 -29 -34 -69 -134 -52 -58 10 -86 6 -98 -14 -14 -21 -17 -22 -18 -1 0 15 -8 21 -18 15 -9 -6 -52 -16 -95 -23 -42 -6 -84 -22 -92 -35 -10 -17 -14 -16 -15 3 0 18 -10 20 -37 6 -20 -11 -58 -14 -85 -8 -45 12 -46 10 -18 -24 17 -22 19 -31 5 -23 -14 9 -25 7 -25 -2 0 -10 -36 -15 -79 -11 -62 4 -90 -4 -123 -39 -24 -25 -38 -34 -30 -20 8 14 6 25 -4 25 -23 0 -43 -68 -44 -145 0 -67 -14 -68 160 6 106 45 217 71 427 100 308 42 388 60 530 123 52 24 159 47 243 54 l150 12 40 82 c76 158 129 174 361 116 34 -9 48 2 69 53 34 80 -2 106 -148 108 -60 1 -102 11 -107 26 -5 14 -28 25 -52 25 -35 -1 -38 -4 -13 -20z"/> <path d="M5120 2944 c0 -5 22 -30 48 -54 27 -25 60 -85 73 -133 46 -163 170 -214 334 -137 208 98 606 114 801 32 78 -33 192 -59 318 -72 108 -12 221 -26 251 -32 54 -11 55 -9 55 85 l0 97 -120 -1 c-66 0 -120 7 -120 15 0 9 -10 16 -21 16 -12 0 -15 -11 -6 -25 11 -19 7 -20 -14 -5 -16 12 -53 20 -83 18 -30 -1 -50 6 -44 15 6 9 -8 18 -31 20 -48 2 -59 5 -106 26 -20 9 -59 11 -87 6 -32 -6 -55 0 -62 17 -7 19 -20 22 -45 9 -24 -13 -48 -10 -78 11 -27 19 -43 22 -43 8 0 -14 -16 -11 -43 8 -26 18 -56 24 -75 15 -18 -9 -52 -14 -77 -12 -25 2 -45 -3 -45 -11 0 -8 -25 -15 -55 -16 -57 -1 -151 -15 -160 -24 -3 -3 -13 -6 -23 -7 -10 -2 -25 -10 -34 -18 -8 -8 -56 -15 -107 -15 -51 0 -103 -10 -114 -21 -15 -15 -25 -12 -34 11 -7 19 -4 27 7 20 11 -7 20 -3 20 9 0 11 -9 22 -20 24 -11 1 -29 4 -40 7 -11 3 -29 6 -40 8 -11 1 -20 15 -20 31 0 16 -20 41 -45 54 -46 25 -115 38 -115 21z"/> <path d="M5046 2869 c40 -131 57 -237 49 -292 -5 -36 -2 -94 6 -131 8 -36 7 -66 -3 -66 -10 0 -18 -18 -18 -40 0 -45 -70 -57 -86 -15 -7 19 -15 20 -34 1 -14 -13 -19 -39 -12 -58 10 -25 19 -29 35 -13 15 15 36 16 66 2 59 -27 45 -141 -62 -507 -16 -55 -52 -235 -80 -400 -28 -165 -59 -340 -68 -390 -22 -121 -23 -200 -1 -200 22 0 53 99 59 195 2 28 23 55 53 69 60 27 64 56 11 70 -41 11 -39 110 2 155 9 10 17 38 17 61 0 23 11 53 25 67 20 20 19 28 -3 42 -19 11 -23 32 -13 64 8 26 19 92 24 147 6 55 26 136 46 181 33 76 56 169 72 293 4 30 16 72 28 94 12 22 21 80 21 131 0 59 9 91 25 91 19 1 19 5 -1 17 -15 9 -30 57 -35 105 -22 238 -39 303 -87 335 -45 30 -47 29 -36 -8z"/> <path d="M3630 2820 c-7 -33 -21 -65 -32 -71 -31 -19 -20 -40 21 -40 30 0 37 11 31 56 -4 33 1 51 13 43 11 -6 15 -17 10 -22 -22 -22 37 -62 62 -42 36 30 -25 134 -78 136 -8 0 -20 -27 -27 -60z"/> <path d="M3200 2830 c-15 -112 10 -270 43 -270 11 0 14 19 5 45 -8 25 -21 95 -28 155 -8 61 -17 92 -20 70z"/> <path d="M3831 2816 c-17 -25 -31 -54 -31 -65 0 -12 9 -7 20 9 16 26 19 25 20 -6 0 -19 -13 -40 -30 -47 -38 -14 -40 -87 -2 -87 26 0 64 120 54 175 -2 14 6 25 17 25 12 0 21 9 21 20 0 35 -37 22 -69 -24z"/> <path d="M3299 2782 c-24 -25 -23 -28 4 -17 25 9 30 3 22 -26 -5 -22 0 -39 13 -39 12 0 22 23 22 51 0 29 9 46 20 39 11 -7 20 -3 20 8 0 29 -69 19 -101 -16z"/> <path d="M3449 2745 c-43 -35 -64 -145 -29 -145 20 0 71 81 65 103 -2 7 16 8 41 2 44 -11 44 -11 6 32 -21 24 -39 43 -40 43 -1 -1 -21 -16 -43 -35z"/> <path d="M1684 2656 c-28 -28 -32 -96 -5 -96 10 0 17 -58 15 -128 -2 -71 -10 -118 -19 -105 -21 34 -18 4 7 -61 12 -31 29 -96 38 -146 54 -292 178 -600 242 -600 10 0 18 -12 18 -28 0 -15 14 -38 30 -52 54 -45 7 72 -73 180 -119 161 -196 509 -149 667 34 111 21 236 -33 327 -45 76 -40 73 -71 42z"/> <path d="M3485 2597 c-29 -77 -23 -90 19 -42 18 20 26 50 18 70 -10 29 -17 24 -37 -28z"/> <path d="M3573 2647 c-25 -26 -13 -47 27 -47 22 0 40 13 40 30 0 30 -42 41 -67 17z"/> <path d="M4232 2597 c-43 -32 -83 -53 -88 -47 -15 15 -63 -56 -63 -95 -1 -19 -9 -35 -19 -35 -10 0 -11 31 0 75 23 101 23 105 -13 105 -17 0 -26 -9 -20 -19 7 -11 6 -43 -1 -72 -19 -76 -47 -21 -35 69 9 66 7 69 -20 36 -22 -27 -32 -30 -40 -10 -7 14 -7 -19 -1 -74 7 -67 5 -91 -8 -72 -16 22 -24 19 -44 -18 -19 -35 -28 -39 -41 -18 -14 22 -35 18 -113 -21 -67 -33 -85 -51 -61 -56 19 -4 35 -15 35 -24 0 -59 170 -41 186 20 6 21 21 39 35 39 18 0 18 -7 1 -28 -44 -53 24 -48 131 10 57 30 108 50 115 43 7 -6 12 6 12 27 1 31 4 33 19 8 15 -23 26 -13 52 48 17 43 52 95 76 117 23 21 33 33 20 26 -13 -6 -27 -4 -30 6 -4 9 -42 -9 -85 -40z"/> <path d="M5660 2525 c-16 -6 -54 -27 -83 -48 -29 -20 -66 -37 -82 -37 -16 0 -39 -22 -51 -50 -15 -32 -16 -50 -3 -50 11 0 25 14 32 30 21 56 42 30 33 -43 -7 -64 -4 -70 23 -48 17 14 31 34 31 43 0 10 38 54 84 98 81 75 89 130 16 105z"/> <path d="M6160 2471 c0 -74 28 -110 48 -60 6 18 21 26 32 19 13 -8 14 4 1 37 -10 27 -13 54 -6 61 6 7 -8 12 -32 12 -36 0 -43 -12 -43 -69z"/> <path d="M3640 2462 c0 -47 53 -70 68 -30 7 17 3 25 -8 18 -11 -7 -20 2 -20 19 0 17 -9 31 -20 31 -11 0 -20 -17 -20 -38z"/> <path d="M1308 2383 c-27 -19 -33 -136 -10 -180 12 -21 35 -118 51 -216 16 -97 35 -204 42 -237 6 -33 13 -78 14 -100 1 -22 14 -57 28 -78 16 -24 19 -50 8 -70 -24 -45 -4 -131 42 -180 40 -44 87 -243 71 -304 -6 -20 1 -40 13 -45 16 -7 16 -10 -1 -11 -23 -2 -21 -20 9 -102 6 -16 13 -39 16 -50 3 -11 16 -60 29 -110 22 -85 57 -261 69 -350 3 -22 16 -66 29 -98 13 -31 26 -94 31 -140 4 -45 8 -89 9 -97 1 -8 24 -15 50 -15 65 0 83 77 39 175 -18 41 -31 90 -29 108 2 19 -6 40 -18 47 -16 10 -15 22 1 42 17 20 18 35 3 53 -17 21 -34 109 -43 221 0 9 -10 11 -21 4 -11 -7 -20 2 -20 19 0 17 14 31 30 31 44 0 37 33 -15 69 -38 27 -40 35 -15 51 17 11 20 20 7 20 -33 0 -51 61 -26 91 16 19 13 30 -10 43 -41 23 -55 146 -19 160 37 14 36 79 -2 93 -40 15 -38 53 2 53 24 0 20 14 -21 62 -38 46 -50 79 -44 120 5 32 3 62 -6 67 -12 8 -59 146 -73 216 -2 8 -5 17 -7 20 -2 3 -7 23 -9 45 -3 22 -12 60 -20 85 -10 31 -7 45 11 45 14 0 6 14 -19 31 -24 17 -44 44 -44 59 0 15 -11 53 -24 84 -13 31 -26 70 -28 86 -3 17 -12 51 -20 77 -13 45 -10 47 54 33 59 -12 64 -10 38 14 -43 41 -130 75 -152 59z"/> <path d="M2040 2376 c1 -15 66 -73 145 -130 80 -57 163 -120 185 -140 22 -20 72 -59 110 -85 39 -27 90 -70 114 -95 24 -25 60 -46 80 -46 26 0 8 28 -64 99 -58 58 -118 100 -144 100 -31 1 -41 10 -33 31 7 19 -6 36 -38 48 -27 11 -55 33 -62 50 -6 17 -24 26 -40 21 -15 -6 -33 3 -40 20 -6 17 -25 31 -40 31 -16 0 -34 13 -40 29 -16 41 -133 100 -133 67z"/> <path d="M6864 2351 l-67 -47 46 -32 c25 -18 35 -32 21 -32 -13 0 -24 -16 -25 -35 0 -19 -13 -70 -28 -113 -19 -50 -22 -93 -11 -123 20 -52 -47 -160 -85 -136 -13 8 -17 -4 -9 -35 15 -60 -20 -107 -91 -125 -48 -12 -52 -18 -31 -52 18 -29 32 -34 60 -19 45 24 47 41 3 24 -23 -9 -29 -5 -19 11 8 12 39 23 68 23 79 1 145 22 132 43 -6 10 -19 12 -29 6 -11 -6 -19 -1 -19 11 0 14 16 18 40 10 50 -16 84 57 58 125 -12 31 -10 45 6 45 18 0 18 6 2 22 -15 15 -16 43 -4 85 10 35 23 112 28 172 6 60 17 114 25 120 20 15 29 101 10 100 -8 -1 -45 -22 -81 -48z"/> <path d="M5810 2348 c-38 -30 -38 -31 20 -24 33 3 58 15 57 26 -6 31 -34 31 -77 -2z"/> <path d="M5381 2274 c-1 -30 -14 -60 -31 -67 -19 -7 -29 -35 -28 -74 2 -35 7 -48 11 -30 5 18 24 38 43 45 19 7 45 17 59 24 45 21 26 -31 -35 -95 -59 -61 -75 -97 -45 -97 31 1 61 31 68 70 5 24 23 39 44 37 24 -2 32 7 24 26 -6 17 0 49 12 73 21 40 20 41 -10 17 -29 -25 -33 -22 -33 28 0 31 -6 50 -13 43 -7 -8 -25 2 -39 21 -24 32 -27 30 -27 -21z"/> <path d="M6120 2284 c-43 -20 -205 -126 -231 -152 -100 -101 -209 -311 -162 -313 13 -1 5 -9 -17 -17 -26 -11 -41 -36 -43 -74 -1 -32 -4 -58 -6 -58 -2 0 -8 -22 -13 -50 -5 -27 -18 -58 -29 -69 -10 -10 -19 -39 -19 -64 0 -24 -9 -50 -20 -57 -11 -7 -20 -34 -20 -61 0 -27 -11 -49 -25 -50 -14 0 -2 -13 25 -29 28 -16 39 -29 25 -29 -33 -1 -33 -81 0 -81 34 0 86 166 56 176 -16 6 -12 24 10 58 18 27 28 53 23 58 -5 5 0 52 10 104 10 52 23 117 28 144 6 28 19 53 29 57 11 3 19 22 19 42 0 20 18 58 39 86 22 27 34 55 27 62 -7 7 -3 13 9 13 12 0 34 31 48 70 14 38 41 75 61 81 20 7 36 19 36 28 0 10 17 13 38 7 26 -6 42 3 51 30 7 22 27 38 44 37 18 -2 35 13 38 32 3 19 4 34 2 34 -2 -1 -16 -8 -33 -15z"/> <path d="M4885 2247 c-14 -6 -25 -31 -25 -57 0 -69 -20 -110 -54 -110 -19 0 -26 -11 -18 -31 6 -17 3 -26 -7 -20 -18 11 -83 -81 -146 -209 -19 -38 -42 -83 -51 -100 -44 -75 -64 -121 -64 -145 0 -15 -31 -74 -68 -132 -44 -68 -68 -130 -68 -175 0 -38 -10 -82 -23 -97 -19 -23 -16 -26 16 -18 22 6 46 35 53 64 7 29 26 67 41 84 15 17 59 89 97 160 49 92 80 128 106 125 34 -3 34 -2 1 23 -36 26 -1 193 47 222 26 16 22 -59 -5 -86 -12 -12 -16 -39 -8 -59 12 -30 21 -24 54 41 22 42 35 81 30 87 -6 5 25 77 68 159 44 82 79 172 79 199 0 35 8 46 25 35 17 -10 16 -4 -2 19 -29 35 -37 37 -78 21z"/> <path d="M468 2170 c56 -60 72 -63 72 -12 0 22 -19 42 -45 49 -73 20 -76 16 -27 -37z"/> <path d="M6144 2187 c3 -19 19 -38 34 -43 20 -7 24 1 15 24 -7 20 -4 29 7 22 11 -7 20 -3 20 9 0 11 -19 21 -41 21 -28 0 -40 -11 -35 -33z"/> <path d="M6308 2163 c13 -21 -99 -137 -147 -153 -36 -11 -36 -99 1 -121 10 -6 18 -21 18 -34 0 -12 -6 -15 -14 -8 -18 19 -64 -157 -65 -251 -1 -40 -10 -79 -21 -86 -12 -7 -16 -20 -11 -29 6 -9 -7 -21 -29 -27 -42 -11 -60 -134 -20 -134 11 0 20 14 20 30 0 17 18 30 41 30 41 0 47 9 68 105 7 33 25 55 44 55 29 0 29 5 -5 42 -35 39 -35 43 -3 67 19 14 29 31 22 37 -7 7 1 33 17 58 57 88 29 288 -34 236 -16 -14 -30 -16 -30 -6 0 28 96 68 110 46 6 -10 24 -13 41 -7 34 13 41 167 8 167 -12 0 -17 -8 -11 -17z"/> <path d="M678 2083 c14 -25 13 -44 -3 -60 -13 -13 -14 -24 -4 -24 10 -1 41 -6 69 -11 48 -9 48 -8 10 21 -22 16 -33 30 -24 30 23 1 -24 81 -47 81 -14 0 -14 -12 -1 -37z"/> <path d="M5604 2088 c-18 -20 -20 -39 -6 -63 18 -33 20 -33 32 -1 22 57 5 98 -26 64z"/> <path d="M171 2061 c-6 -10 -4 -23 5 -28 39 -25 193 -70 203 -60 16 16 -61 67 -102 67 -19 0 -40 9 -47 20 -16 25 -44 26 -59 1z"/> <path d="M440 2020 c46 -40 80 -51 80 -27 0 20 -67 66 -98 66 -18 1 -11 -14 18 -39z"/> <path d="M5497 1921 c-15 -33 -33 -61 -40 -61 -7 0 -19 -44 -27 -98 -16 -121 -59 -188 -89 -142 -19 29 -32 -8 -23 -65 1 -8 -11 -15 -28 -15 -16 0 -29 -7 -28 -15 9 -54 -8 -86 -52 -97 -31 -8 -50 -26 -50 -50 0 -21 -9 -38 -20 -38 -12 0 -10 -17 5 -40 28 -46 86 2 66 54 -6 16 6 26 30 26 35 0 48 21 42 64 -2 8 10 10 26 4 21 -8 25 0 16 33 -10 40 -6 43 41 32 47 -12 53 -7 65 54 7 36 29 79 49 93 30 21 33 35 17 66 -23 42 11 81 52 61 12 -5 3 4 -18 22 -32 26 -34 35 -12 56 21 20 24 20 13 0 -31 -55 22 -21 55 35 19 33 26 60 16 60 -11 0 -33 5 -49 11 -20 8 -39 -9 -57 -50z"/> <path d="M5320 1925 c0 -25 -8 -45 -17 -45 -10 0 -18 -22 -18 -50 0 -30 11 -50 29 -50 16 0 25 11 21 25 -5 14 -2 44 6 67 9 23 7 54 -2 70 -14 21 -18 17 -19 -17z"/> <path d="M402 1881 c-21 -13 -14 -24 32 -48 32 -17 89 -58 125 -92 36 -33 76 -61 88 -62 13 0 7 -13 -13 -28 -25 -18 -29 -32 -14 -41 13 -8 28 -9 34 -2 7 6 48 -29 93 -78 75 -84 173 -123 173 -70 0 11 -8 20 -19 20 -10 0 -15 18 -11 40 8 43 -10 52 -42 20 -28 -28 -108 61 -108 119 0 10 -19 24 -42 31 -34 12 -40 27 -35 96 6 70 1 84 -33 90 -23 3 -31 -1 -19 -10 23 -17 29 -106 8 -106 -7 0 -29 18 -49 40 -19 21 -44 33 -55 27 -11 -7 -35 6 -53 30 -22 29 -41 36 -60 24z"/> <path d="M105 1839 c-76 -30 -50 -87 30 -66 23 6 46 28 51 49 11 41 -10 46 -81 17z"/> <path d="M2226 1798 c-23 -23 -12 -98 16 -98 9 0 27 20 41 45 22 42 21 43 -13 15 -33 -27 -35 -26 -22 15 16 50 11 56 -22 23z"/> <path d="M187 1711 c-12 -27 -17 -49 -10 -48 43 6 65 -13 112 -93 29 -49 62 -90 73 -90 12 0 18 -16 14 -35 -4 -19 16 -54 44 -78 31 -27 68 -100 99 -195 27 -84 56 -152 64 -152 9 0 8 22 -2 48 -10 26 -13 53 -7 59 6 7 3 24 -7 38 -11 14 -37 81 -58 150 -22 69 -46 125 -54 125 -8 0 -15 11 -15 25 0 14 -36 72 -80 130 -44 58 -80 114 -80 123 0 14 -47 43 -67 42 -1 0 -13 -22 -26 -49z"/> <path d="M2025 1725 c-14 -4 -25 -21 -25 -36 0 -22 11 -24 51 -9 34 13 47 13 39 0 -7 -11 1 -20 18 -20 49 0 132 -44 119 -64 -6 -10 1 -16 16 -12 15 3 48 -15 73 -40 39 -39 50 -41 73 -18 35 35 185 11 371 -61 72 -28 141 -51 155 -51 14 0 25 -7 25 -15 0 -22 90 -6 168 32 90 42 88 44 -48 57 -61 6 -159 25 -220 43 -60 18 -128 34 -150 36 -22 2 -47 20 -55 40 -11 28 -28 34 -64 25 -27 -7 -54 -3 -62 9 -18 29 -134 15 -161 -19 -16 -20 -26 -22 -36 -5 -8 13 -3 23 10 23 14 0 18 6 10 14 -8 8 -45 12 -82 9 -57 -5 -67 0 -61 31 7 36 -94 56 -164 31z"/> <path d="M5847 1664 c-25 -17 -87 -282 -87 -375 0 -37 -9 -72 -20 -79 -11 -7 -20 -37 -20 -68 0 -30 -7 -62 -15 -70 -8 -8 -15 -48 -16 -88 -2 -41 -15 -132 -29 -204 -15 -71 -25 -198 -22 -282 2 -83 -5 -207 -16 -275 -15 -95 -14 -134 7 -175 36 -68 46 -36 61 192 30 443 39 526 58 557 9 14 20 82 24 150 4 67 8 123 9 123 1 0 7 45 12 99 6 55 18 114 28 132 9 18 22 81 29 141 7 59 21 133 30 163 18 56 3 82 -33 59z"/> <path d="M1750 1600 c-12 -20 -7 -29 79 -128 28 -32 51 -64 51 -73 0 -8 20 -20 45 -27 35 -9 39 -16 17 -30 -22 -14 -19 -20 14 -31 23 -7 47 -30 54 -50 6 -21 40 -48 75 -60 58 -20 60 -24 31 -54 -40 -40 7 -107 75 -107 56 0 74 -20 46 -53 -17 -21 -15 -27 7 -27 36 0 101 -68 83 -87 -8 -7 -3 -13 10 -13 13 0 23 -17 23 -38 0 -21 18 -42 43 -48 27 -8 38 -22 31 -41 -7 -17 2 -35 20 -42 18 -6 26 -17 20 -24 -19 -19 40 -119 96 -163 27 -22 50 -50 50 -62 0 -46 197 -42 212 5 14 42 181 213 209 213 34 0 179 203 179 252 0 66 -9 62 -136 -54 -153 -140 -416 -338 -448 -338 -15 0 -37 25 -48 55 -19 48 -303 493 -444 695 -8 12 -41 33 -74 49 -47 22 -52 30 -25 36 40 9 49 49 10 44 -54 -7 -73 5 -182 110 -61 60 -117 101 -123 91z"/> <path d="M6425 1547 c-14 -6 -25 -25 -25 -44 0 -21 6 -25 15 -11 8 12 51 32 95 43 l80 21 -70 0 c-38 1 -81 -4 -95 -9z"/> <path d="M3833 1467 c-32 -27 -53 -54 -48 -59 6 -6 36 12 68 39 31 27 53 54 47 60 -5 5 -36 -13 -67 -40z"/> <path d="M6620 1488 c0 -12 -27 -50 -59 -84 -53 -55 -56 -65 -27 -81 31 -17 31 -21 -1 -53 -23 -22 -28 -42 -16 -57 51 -62 41 -176 -17 -198 -23 -9 -21 -12 7 -13 27 -2 35 -13 27 -41 -5 -22 1 -43 13 -47 17 -5 16 -16 -3 -38 -21 -26 -19 -33 7 -43 18 -7 26 -4 19 7 -7 11 -3 20 8 20 11 0 17 27 13 60 -5 33 1 65 11 72 11 6 18 26 17 45 -7 65 1 85 26 70 17 -10 16 -4 -2 19 -21 26 -22 41 -5 62 18 21 14 29 -19 38 -40 11 -41 13 -8 63 23 36 26 51 9 51 -17 0 -19 8 -6 25 34 43 43 88 24 117 -9 15 -18 18 -18 6z"/> <path d="M3541 1389 c-115 -66 -321 -277 -321 -329 0 -55 28 -51 130 20 48 33 96 60 108 60 11 0 44 40 72 88 52 88 110 133 110 85 0 -14 -11 -36 -24 -49 -19 -19 -12 -23 30 -20 36 3 51 14 45 31 -8 20 -1 21 30 5 29 -16 36 -34 27 -71 -12 -50 21 -71 37 -24 13 36 95 -41 95 -88 0 -20 9 -37 20 -37 11 0 20 -19 20 -41 0 -23 8 -36 18 -31 22 14 115 -32 288 -142 75 -48 174 -102 220 -119 46 -18 98 -48 116 -68 55 -61 210 -73 224 -17 16 59 23 55 -157 101 -288 74 -488 200 -779 495 -110 111 -204 202 -210 202 -5 0 -50 -23 -99 -51z m-23 -84 c-51 -68 -168 -164 -198 -164 -16 1 19 45 79 100 107 98 171 132 119 64z"/> <path d="M140 1362 c0 -11 -12 -16 -27 -11 -15 6 -26 -3 -26 -20 0 -23 22 -31 88 -31 50 0 82 8 76 19 -7 11 -26 14 -42 8 -19 -7 -28 -2 -25 13 3 14 -5 29 -19 34 -14 5 -25 0 -25 -12z"/> <path d="M4260 1340 c0 -12 -22 -29 -48 -39 -98 -38 -92 -133 6 -111 57 12 61 19 59 92 -3 67 -17 116 -17 58z"/> <path d="M3031 1242 c-6 -10 7 -14 29 -8 22 6 40 1 40 -12 0 -12 -20 -22 -45 -23 -43 0 -43 -1 -7 -22 36 -21 92 17 92 62 0 20 -97 22 -109 3z"/> <path d="M3544 1132 c-40 -90 35 -142 145 -100 51 20 76 82 40 96 -17 6 -26 4 -21 -6 15 -23 -60 -88 -90 -78 -16 5 -13 18 11 42 32 32 32 34 -6 34 -22 0 -43 15 -47 34 -4 25 -13 19 -32 -22z"/> <path d="M1316 1133 c-49 -37 -25 -133 33 -133 28 0 31 33 5 73 -8 13 -9 38 -2 55 15 38 9 39 -36 5z"/> <path d="M3745 1013 c-47 -23 -85 -49 -85 -57 0 -21 58 3 140 57 83 56 61 56 -55 0z"/> <path d="M5343 999 c-26 -11 -54 -15 -62 -9 -18 10 -134 -43 -150 -69 -6 -9 27 -7 74 4 47 12 110 23 140 26 30 2 62 6 70 10 8 3 28 6 43 7 16 1 32 13 37 27 10 30 -81 32 -152 4z"/> <path d="M3762 948 c-59 -27 -102 -54 -96 -60 6 -6 41 2 77 19 37 16 87 36 112 43 25 7 45 21 45 31 0 26 -15 23 -138 -33z"/> <path d="M284 958 c5 -15 35 -31 67 -35 71 -8 93 -38 66 -89 -15 -28 -15 -35 2 -25 16 10 19 -1 10 -37 -11 -43 -6 -52 27 -52 22 0 47 -16 55 -35 9 -19 18 -39 20 -45 2 -5 11 -30 19 -55 8 -25 24 -45 35 -45 12 0 10 -12 -4 -28 -18 -23 -16 -33 11 -48 26 -14 31 -36 23 -90 -9 -52 -4 -74 18 -82 71 -28 71 -29 25 263 -11 69 -29 150 -42 180 -12 30 -21 63 -18 73 2 9 -16 12 -39 6 -24 -6 -38 -6 -31 1 6 6 1 25 -13 41 -21 25 -18 28 20 16 36 -12 45 -7 45 22 0 21 -15 39 -35 40 -127 11 -200 23 -233 37 -28 11 -35 8 -28 -13z"/> <path d="M788 946 c26 -7 30 -15 14 -25 -13 -8 10 -16 52 -17 42 -1 119 -8 171 -15 58 -8 95 -5 95 7 0 32 -45 40 -166 31 -73 -6 -114 -2 -114 12 0 11 -20 20 -45 19 -38 -2 -39 -4 -7 -12z"/> <path d="M3380 920 c-22 -22 -40 -58 -40 -80 0 -41 29 -54 49 -22 6 11 38 25 71 32 33 7 60 22 60 33 0 11 7 15 15 10 9 -5 33 3 54 19 65 47 -25 36 -106 -13 l-68 -41 13 51 c15 61 5 64 -48 11z"/> <path d="M1310 926 c-68 -17 -124 -147 -132 -306 -1 -16 -11 -66 -22 -110 -11 -44 -23 -105 -27 -136 -4 -31 -17 -107 -28 -169 -35 -188 -31 -205 47 -205 57 0 68 7 67 45 -2 96 24 311 44 362 11 29 15 65 9 80 -6 15 5 43 24 63 27 26 30 42 13 69 -12 19 -14 46 -5 61 9 14 11 40 5 56 -7 17 9 44 36 65 39 30 43 40 21 66 -14 17 -20 41 -13 52 8 12 11 20 7 19 -3 -2 -24 -7 -46 -12z"/> <path d="M5129 851 c-37 -27 -37 -29 -3 -42 21 -8 50 -2 70 16 19 16 48 35 64 41 17 6 2 12 -31 12 -34 1 -79 -11 -100 -27z"/> <path d="M6095 836 c-41 -11 -75 -27 -75 -36 0 -13 134 18 210 49 40 16 -62 6 -135 -13z"/> <path d="M2040 791 c0 -12 45 -32 135 -60 25 -8 45 -5 45 5 0 11 -25 26 -55 33 -30 7 -71 18 -90 23 -19 6 -35 5 -35 -1z"/> <path d="M4113 787 c-7 -8 -13 -32 -13 -55 0 -23 -23 -112 -50 -198 -28 -85 -53 -216 -57 -290 -5 -74 -15 -150 -23 -169 -25 -60 -47 -19 -37 70 7 53 3 75 -8 60 -51 -73 -29 -205 34 -205 46 0 61 9 61 38 0 20 14 48 30 62 17 14 30 42 30 62 0 21 7 38 16 38 9 0 32 45 52 100 20 55 51 109 69 121 27 16 27 19 3 17 -111 -11 -133 56 -64 198 51 105 21 214 -43 151z"/> <path d="M149 762 c6 -11 -8 -51 -31 -90 -31 -54 -35 -73 -15 -74 44 -4 65 -9 103 -27 46 -21 62 -4 38 42 -10 20 -18 66 -16 102 2 55 -5 65 -44 65 -26 0 -41 -8 -35 -18z"/> <path d="M5125 756 c-44 -11 -65 -29 -65 -54 0 -21 -14 -43 -31 -50 -47 -18 -16 -50 35 -37 51 14 111 61 138 109 24 44 2 54 -77 32z"/> <path d="M3215 692 c-5 -28 1 -60 13 -72 16 -16 13 -27 -8 -41 -20 -12 -22 -18 -5 -19 45 0 26 -40 -20 -41 -44 -2 -44 -2 5 -23 45 -20 46 -23 11 -31 -36 -9 -35 -12 10 -37 38 -20 41 -27 14 -27 -19 -1 -35 -11 -35 -23 0 -12 -12 -18 -28 -12 -15 6 -62 -2 -105 -18 l-77 -30 76 10 c54 7 96 -2 145 -31 96 -57 88 -64 -56 -51 -130 12 -80 -11 73 -33 l77 -11 -15 164 c-8 90 -17 209 -20 263 -6 107 -39 145 -55 63z"/> <path d="M793 684 c-6 -8 41 -17 103 -20 61 -2 128 -9 146 -15 19 -6 40 -2 46 8 6 10 -30 23 -81 30 -125 17 -203 16 -214 -3z"/> <path d="M2216 666 c-28 -7 -30 -17 -12 -57 26 -57 42 -60 85 -18 65 66 30 103 -73 75z"/> <path d="M6504 589 c-14 -16 -48 -29 -76 -29 -28 0 -45 -9 -38 -20 18 -29 90 -25 90 5 1 17 7 15 20 -5 16 -26 19 -25 20 6 0 19 20 43 45 53 41 17 41 19 5 19 -22 0 -52 -13 -66 -29z"/> <path d="M3820 521 c0 -21 -16 -48 -35 -59 -28 -16 -30 -25 -10 -45 16 -16 32 -18 44 -6 28 28 45 149 21 149 -11 0 -20 -18 -20 -39z"/> <path d="M4614 540 c-71 -156 -80 -240 -24 -240 44 0 54 -35 23 -84 -38 -60 -65 -186 -36 -168 28 18 116 213 132 295 l13 67 -40 -46 c-38 -44 -41 -44 -60 -8 -14 26 -13 45 0 58 12 12 18 51 13 88 -4 44 -12 58 -21 38z"/> <path d="M5011 522 c-6 -18 -8 -38 -6 -45 3 -7 -13 -33 -35 -58 -22 -25 -30 -40 -17 -33 13 8 28 0 34 -16 25 -64 58 -30 48 48 -7 53 -1 87 18 107 25 25 25 28 -2 28 -17 0 -35 -14 -40 -31z"/> <path d="M192 521 c42 -18 47 -127 7 -152 -9 -5 -4 -33 11 -62 15 -29 22 -64 16 -79 -6 -16 -3 -28 7 -28 9 0 19 -20 21 -45 3 -25 9 -63 14 -85 5 -22 10 -47 10 -55 1 -8 30 -15 64 -15 56 0 61 5 48 45 -8 25 -16 106 -17 181 -1 130 -3 136 -45 125 -34 -8 -43 -3 -39 23 5 38 51 62 51 26 0 -12 10 -16 23 -8 14 9 1 25 -35 44 -35 19 -48 34 -32 39 40 14 -36 64 -96 63 -47 0 -47 -2 -8 -17z"/> <path d="M3943 430 c-2 -33 -9 -82 -16 -110 -10 -38 -7 -45 12 -28 14 14 20 58 16 110 -5 60 -9 69 -12 28z"/> <path d="M860 440 c17 -11 62 -19 100 -18 64 2 66 3 20 18 -76 24 -158 24 -120 0z"/> <path d="M5440 386 c0 -31 -8 -68 -18 -83 -10 -16 -9 -57 1 -96 12 -41 12 -80 1 -100 -25 -44 -7 -107 30 -107 20 0 26 11 18 33 -7 17 -2 44 10 60 16 19 16 27 1 27 -15 0 -16 16 -3 51 24 63 26 95 3 81 -9 -6 -13 29 -8 77 4 48 -2 93 -14 100 -13 8 -21 -8 -21 -43z"/> <path d="M3712 278 c-29 -33 -52 -69 -52 -78 0 -9 -31 -58 -70 -108 l-70 -92 68 0 c60 0 75 11 121 90 29 50 62 90 74 90 12 0 17 18 11 40 -8 30 0 40 28 40 21 0 38 9 38 20 0 11 -13 20 -30 20 -16 0 -30 9 -30 20 0 37 -36 20 -88 -42z"/> <path d="M6485 295 c13 -38 75 -43 75 -6 0 18 -17 31 -42 31 -24 0 -38 -10 -33 -25z"/> <path d="M4958 285 c-2 -8 -1 -22 0 -31 2 -10 -6 -12 -16 -5 -11 6 -25 3 -32 -9 -7 -11 2 -20 19 -20 44 0 38 -35 -9 -50 -22 -7 -40 -21 -40 -31 0 -11 -17 -19 -39 -19 -21 0 -44 -8 -50 -19 -7 -11 13 -11 53 0 36 11 68 19 72 19 3 0 -4 -17 -15 -39 -29 -53 -26 -81 7 -81 28 0 62 55 54 87 -2 10 6 28 17 42 11 14 15 31 7 38 -7 7 -1 13 13 13 20 0 21 6 2 28 -16 20 -16 32 -2 42 12 7 16 21 10 31 -14 23 -48 25 -51 4z"/> <path d="M5167 231 c6 -17 -2 -43 -17 -58 -39 -39 10 -60 75 -34 25 10 34 19 20 20 -14 0 -24 8 -22 16 2 8 -4 31 -12 50 -18 42 -60 47 -44 6z"/> <path d="M640 178 c0 -12 18 -27 40 -32 27 -7 35 -19 23 -33 -44 -56 -47 -113 -5 -113 34 0 39 10 32 75 -4 41 -8 86 -9 100 -1 31 -81 34 -81 3z"/> <path d="M3239 121 c28 -51 26 -67 -4 -48 -17 10 -16 4 2 -19 43 -52 63 -41 63 36 0 57 -8 70 -41 70 -34 0 -37 -6 -20 -39z"/> <path d="M5930 120 c-55 -23 37 -23 110 0 49 16 49 16 -10 17 -33 0 -78 -8 -100 -17z"/> <path d="M3000 112 c0 -31 42 -112 58 -112 33 0 15 82 -22 102 -20 11 -36 15 -36 10z"/> <path d="M2260 44 c0 -21 66 -43 128 -44 42 0 28 25 -16 32 -15 2 -46 10 -70 17 -23 8 -42 5 -42 -5z"/> </g> </svg> 